<?xml version="1.0" encoding="UTF-8" standalone="no"?>
<!-- Created with Inkscape (http://www.inkscape.org/) -->

<svg
   xmlns:dc="http://purl.org/dc/elements/1.1/"
   xmlns:cc="http://creativecommons.org/ns#"
   xmlns:rdf="http://www.w3.org/1999/02/22-rdf-syntax-ns#"
   xmlns:svg="http://www.w3.org/2000/svg"
   xmlns="http://www.w3.org/2000/svg"
   version="1.1"
   width="120.87"
   height="106.2"
   id="svg2"
   xml:space="preserve"><metadata
     id="metadata8"><rdf:RDF><cc:Work
         rdf:about=""><dc:format>image/svg+xml</dc:format><dc:type
           rdf:resource="http://purl.org/dc/dcmitype/StillImage" /><dc:title></dc:title></cc:Work></rdf:RDF></metadata><defs
     id="defs6" /><g
     transform="matrix(0.009,0,0,-0.009,-70.2,674.55)"
     id="g10"><path
       d="m 19000,66180 1000,0"
       id="path470"
       style="fill:none;stroke:#840000;stroke-width:60;stroke-linecap:round;stroke-linejoin:round;stroke-miterlimit:10;stroke-opacity:1;stroke-dasharray:none" /><path
       d="m 19750,65880 400,-450 -250,50"
       id="path472"
       style="fill:none;stroke:#840000;stroke-width:60;stroke-linecap:round;stroke-linejoin:round;stroke-miterlimit:10;stroke-opacity:1;stroke-dasharray:none" /><path
       d="m 19900,66030 400,-450 -250,50"
       id="path474"
       style="fill:none;stroke:#840000;stroke-width:60;stroke-linecap:round;stroke-linejoin:round;stroke-miterlimit:10;stroke-opacity:1;stroke-dasharray:none" /><path
       d="m 19000,67180 500,-1000 500,1000 -1000,0 z"
       id="path476"
       style="fill:#840000;fill-opacity:1;fill-rule:nonzero;stroke:#840000;stroke-width:60;stroke-linecap:round;stroke-linejoin:round;stroke-miterlimit:10;stroke-opacity:1;stroke-dasharray:none" /><path
       d="m 19500,66180 0,-1500"
       id="path478"
       style="fill:none;stroke:#840000;stroke-width:60;stroke-linecap:round;stroke-linejoin:round;stroke-miterlimit:10;stroke-opacity:1;stroke-dasharray:none" /><path
       d="m 19380,65540 0,-220"
       id="path482"
       style="fill:none;stroke:#840000;stroke-width:60;stroke-linecap:round;stroke-linejoin:round;stroke-miterlimit:10;stroke-opacity:1;stroke-dasharray:none" /><path
       d="m 19380,65430 -400,0 60,-40 40,-40 20,-30"
       id="path484"
       style="fill:none;stroke:#840000;stroke-width:60;stroke-linecap:round;stroke-linejoin:round;stroke-miterlimit:10;stroke-opacity:1;stroke-dasharray:none" /><path
       d="m 19500,67180 0,1500"
       id="path486"
       style="fill:none;stroke:#840000;stroke-width:60;stroke-linecap:round;stroke-linejoin:round;stroke-miterlimit:10;stroke-opacity:1;stroke-dasharray:none" /><path
       d="m 19020,67820 -20,20 -20,30 0,100 20,40 20,20 40,10 40,0 50,-10 230,-230 0,240"
       id="path490"
       style="fill:none;stroke:#840000;stroke-width:60;stroke-linecap:round;stroke-linejoin:round;stroke-miterlimit:10;stroke-opacity:1;stroke-dasharray:none" /><path
       d="m 20700,65600 500,160 -500,170"
       id="path494"
       style="fill:none;stroke:#008484;stroke-width:60;stroke-linecap:round;stroke-linejoin:round;stroke-miterlimit:10;stroke-opacity:1;stroke-dasharray:none" /><path
       d="m 21150,66380 20,-20 30,-70 0,-50 -30,-70 -50,-50 -40,-20 -100,-20 -70,0 -90,20 -50,20 -50,50 -20,70 0,50 20,70 20,20"
       id="path496"
       style="fill:none;stroke:#008484;stroke-width:60;stroke-linecap:round;stroke-linejoin:round;stroke-miterlimit:10;stroke-opacity:1;stroke-dasharray:none" /><path
       d="m 21170,66580 30,70 0,120 -30,40 -20,30 -50,20 -50,0 -40,-20 -30,-30 -20,-40 -30,-100 -20,-50 -20,-20 -50,-20 -50,0 -50,20 -20,20 -20,50 0,120 20,70"
       id="path498"
       style="fill:none;stroke:#008484;stroke-width:60;stroke-linecap:round;stroke-linejoin:round;stroke-miterlimit:10;stroke-opacity:1;stroke-dasharray:none" /><path
       d="m 20930,67080 0,170"
       id="path500"
       style="fill:none;stroke:#008484;stroke-width:60;stroke-linecap:round;stroke-linejoin:round;stroke-miterlimit:10;stroke-opacity:1;stroke-dasharray:none" /><path
       d="m 21200,67320 0,-240 -500,0 0,240"
       id="path502"
       style="fill:none;stroke:#008484;stroke-width:60;stroke-linecap:round;stroke-linejoin:round;stroke-miterlimit:10;stroke-opacity:1;stroke-dasharray:none" /><path
       d="m 21200,67770 0,-240 -500,0"
       id="path504"
       style="fill:none;stroke:#008484;stroke-width:60;stroke-linecap:round;stroke-linejoin:round;stroke-miterlimit:10;stroke-opacity:1;stroke-dasharray:none" /><path
       d="m 19100,70180 800,0 0,2000 -800,0 0,-2000 z"
       id="path506"
       style="fill:none;stroke:#840000;stroke-width:100;stroke-linecap:round;stroke-linejoin:round;stroke-miterlimit:10;stroke-opacity:1;stroke-dasharray:none" /><path
       d="m 19500,72180 0,500"
       id="path508"
       style="fill:none;stroke:#840000;stroke-width:60;stroke-linecap:round;stroke-linejoin:round;stroke-miterlimit:10;stroke-opacity:1;stroke-dasharray:none" /><path
       d="m 19500,70180 0,-500"
       id="path512"
       style="fill:none;stroke:#840000;stroke-width:60;stroke-linecap:round;stroke-linejoin:round;stroke-miterlimit:10;stroke-opacity:1;stroke-dasharray:none" /><path
       d="m 18700,71010 -240,-160"
       id="path518"
       style="fill:none;stroke:#008484;stroke-width:60;stroke-linecap:round;stroke-linejoin:round;stroke-miterlimit:10;stroke-opacity:1;stroke-dasharray:none" /><path
       d="m 18700,70730 -500,0 0,190 20,50 20,20 50,20 70,0 50,-20 20,-20 30,-50 0,-190"
       id="path520"
       style="fill:none;stroke:#008484;stroke-width:60;stroke-linecap:round;stroke-linejoin:round;stroke-miterlimit:10;stroke-opacity:1;stroke-dasharray:none" /><path
       d="m 18360,71230 430,0 50,-20 20,-50 0,-30"
       id="path522"
       style="fill:none;stroke:#008484;stroke-width:60;stroke-linecap:round;stroke-linejoin:round;stroke-miterlimit:10;stroke-opacity:1;stroke-dasharray:none" /><path
       d="m 18200,71230 20,-20 20,20 -20,20 -20,-20 40,0"
       id="path524"
       style="fill:none;stroke:#008484;stroke-width:60;stroke-linecap:round;stroke-linejoin:round;stroke-miterlimit:10;stroke-opacity:1;stroke-dasharray:none" /><path
       d="m 18670,71680 30,-40 0,-100 -30,-50 -20,-20 -50,-20 -140,0 -50,20 -20,20 -30,50 0,100 30,40"
       id="path526"
       style="fill:none;stroke:#008484;stroke-width:60;stroke-linecap:round;stroke-linejoin:round;stroke-miterlimit:10;stroke-opacity:1;stroke-dasharray:none" /><path
       d="m 15700,66380 1600,0"
       id="path528"
       style="fill:none;stroke:#840000;stroke-width:200;stroke-linecap:round;stroke-linejoin:round;stroke-miterlimit:10;stroke-opacity:1;stroke-dasharray:none" /><path
       d="m 15700,66980 1600,0"
       id="path530"
       style="fill:none;stroke:#840000;stroke-width:200;stroke-linecap:round;stroke-linejoin:round;stroke-miterlimit:10;stroke-opacity:1;stroke-dasharray:none" /><path
       d="m 16500,67080 0,1100"
       id="path532"
       style="fill:none;stroke:#840000;stroke-width:60;stroke-linecap:round;stroke-linejoin:round;stroke-miterlimit:10;stroke-opacity:1;stroke-dasharray:none" /><path
       d="m 16500,66280 0,-1100"
       id="path536"
       style="fill:none;stroke:#840000;stroke-width:60;stroke-linecap:round;stroke-linejoin:round;stroke-miterlimit:10;stroke-opacity:1;stroke-dasharray:none" /><path
       d="m 17150,65530 -20,-20 -70,-30 -50,0 -70,30 -50,50 -20,40 -20,100 0,70 20,90 20,50 50,50 70,20 50,0 70,-20 20,-20"
       id="path542"
       style="fill:none;stroke:#008484;stroke-width:60;stroke-linecap:round;stroke-linejoin:round;stroke-miterlimit:10;stroke-opacity:1;stroke-dasharray:none" /><path
       d="m 17370,65820 0,-430 -20,-50 -50,-20 -30,0"
       id="path544"
       style="fill:none;stroke:#008484;stroke-width:60;stroke-linecap:round;stroke-linejoin:round;stroke-miterlimit:10;stroke-opacity:1;stroke-dasharray:none" /><path
       d="m 17370,65980 -20,-20 20,-20 20,20 -20,20 0,-40"
       id="path546"
       style="fill:none;stroke:#008484;stroke-width:60;stroke-linecap:round;stroke-linejoin:round;stroke-miterlimit:10;stroke-opacity:1;stroke-dasharray:none" /><path
       d="m 13700,70880 1600,0"
       id="path548"
       style="fill:none;stroke:#840000;stroke-width:200;stroke-linecap:round;stroke-linejoin:round;stroke-miterlimit:10;stroke-opacity:1;stroke-dasharray:none" /><path
       d="m 13700,71480 1600,0"
       id="path550"
       style="fill:none;stroke:#840000;stroke-width:200;stroke-linecap:round;stroke-linejoin:round;stroke-miterlimit:10;stroke-opacity:1;stroke-dasharray:none" /><path
       d="m 14500,71580 0,1100"
       id="path552"
       style="fill:none;stroke:#840000;stroke-width:60;stroke-linecap:round;stroke-linejoin:round;stroke-miterlimit:10;stroke-opacity:1;stroke-dasharray:none" /><path
       d="m 14500,70780 0,-1100"
       id="path556"
       style="fill:none;stroke:#840000;stroke-width:60;stroke-linecap:round;stroke-linejoin:round;stroke-miterlimit:10;stroke-opacity:1;stroke-dasharray:none" /><path
       d="m 15150,70030 -20,-20 -70,-30 -50,0 -70,30 -50,50 -20,40 -20,100 0,70 20,90 20,50 50,50 70,20 50,0 70,-20 20,-20"
       id="path562"
       style="fill:none;stroke:#008484;stroke-width:60;stroke-linecap:round;stroke-linejoin:round;stroke-miterlimit:10;stroke-opacity:1;stroke-dasharray:none" /><path
       d="m 15580,70010 -40,-30 -100,0 -50,30 -20,20 -20,50 0,140 20,50 20,20 50,30 100,0 40,-30"
       id="path564"
       style="fill:none;stroke:#008484;stroke-width:60;stroke-linecap:round;stroke-linejoin:round;stroke-miterlimit:10;stroke-opacity:1;stroke-dasharray:none" /><path
       d="m 13500,73680 6000,0"
       id="path566"
       style="fill:none;stroke:#008400;stroke-width:60;stroke-linecap:round;stroke-linejoin:round;stroke-miterlimit:10;stroke-opacity:1;stroke-dasharray:none" /><path
       d="m 19500,73680 0,-1000"
       id="path568"
       style="fill:none;stroke:#008400;stroke-width:60;stroke-linecap:round;stroke-linejoin:round;stroke-miterlimit:10;stroke-opacity:1;stroke-dasharray:none" /><path
       d="m 14500,72680 0,1000"
       id="path570"
       style="fill:none;stroke:#008400;stroke-width:60;stroke-linecap:round;stroke-linejoin:round;stroke-miterlimit:10;stroke-opacity:1;stroke-dasharray:none" /><path
       d="m 14300,73680 c 0,110.4 89.6,200 200,200 110.4,0 200,-89.6 200,-200 0,-110.4 -89.6,-200 -200,-200 -110.4,0 -200,89.6 -200,200 z"
       id="path572"
       style="fill:#008400;fill-opacity:1;fill-rule:nonzero;stroke:#008400;stroke-width:100;stroke-linecap:round;stroke-linejoin:round;stroke-miterlimit:10;stroke-opacity:1;stroke-dasharray:none" /><path
       d="m 14500,69680 0,-6000"
       id="path574"
       style="fill:none;stroke:#008400;stroke-width:60;stroke-linecap:round;stroke-linejoin:round;stroke-miterlimit:10;stroke-opacity:1;stroke-dasharray:none" /><path
       d="m 13500,63680 6000,0"
       id="path576"
       style="fill:none;stroke:#008400;stroke-width:60;stroke-linecap:round;stroke-linejoin:round;stroke-miterlimit:10;stroke-opacity:1;stroke-dasharray:none" /><path
       d="m 19500,63680 0,1000"
       id="path578"
       style="fill:none;stroke:#008400;stroke-width:60;stroke-linecap:round;stroke-linejoin:round;stroke-miterlimit:10;stroke-opacity:1;stroke-dasharray:none" /><path
       d="m 16500,65180 0,-1500"
       id="path580"
       style="fill:none;stroke:#008400;stroke-width:60;stroke-linecap:round;stroke-linejoin:round;stroke-miterlimit:10;stroke-opacity:1;stroke-dasharray:none" /><path
       d="m 16300,63680 c 0,110.4 89.6,200 200,200 110.4,0 200,-89.6 200,-200 0,-110.4 -89.6,-200 -200,-200 -110.4,0 -200,89.6 -200,200 z"
       id="path582"
       style="fill:#008400;fill-opacity:1;fill-rule:nonzero;stroke:#008400;stroke-width:100;stroke-linecap:round;stroke-linejoin:round;stroke-miterlimit:10;stroke-opacity:1;stroke-dasharray:none" /><path
       d="m 14300,63680 c 0,110.4 89.6,200 200,200 110.4,0 200,-89.6 200,-200 0,-110.4 -89.6,-200 -200,-200 -110.4,0 -200,89.6 -200,200 z"
       id="path584"
       style="fill:#008400;fill-opacity:1;fill-rule:nonzero;stroke:#008400;stroke-width:100;stroke-linecap:round;stroke-linejoin:round;stroke-miterlimit:10;stroke-opacity:1;stroke-dasharray:none" /><path
       d="m 16500,68180 0,1000"
       id="path586"
       style="fill:none;stroke:#008400;stroke-width:60;stroke-linecap:round;stroke-linejoin:round;stroke-miterlimit:10;stroke-opacity:1;stroke-dasharray:none" /><path
       d="m 16500,69180 3000,0"
       id="path588"
       style="fill:none;stroke:#008400;stroke-width:60;stroke-linecap:round;stroke-linejoin:round;stroke-miterlimit:10;stroke-opacity:1;stroke-dasharray:none" /><path
       d="m 19500,69680 0,-1000"
       id="path590"
       style="fill:none;stroke:#008400;stroke-width:60;stroke-linecap:round;stroke-linejoin:round;stroke-miterlimit:10;stroke-opacity:1;stroke-dasharray:none" /><path
       d="m 19300,69180 c 0,110.4 89.6,200 200,200 110.4,0 200,-89.6 200,-200 0,-110.4 -89.6,-200 -200,-200 -110.4,0 -200,89.6 -200,200 z"
       id="path592"
       style="fill:#008400;fill-opacity:1;fill-rule:nonzero;stroke:#008400;stroke-width:100;stroke-linecap:round;stroke-linejoin:round;stroke-miterlimit:10;stroke-opacity:1;stroke-dasharray:none" /><path
       d="m 9500,73630 -600,0 0,100 600,0 0,-100 z"
       id="path594"
       style="fill:none;stroke:#840000;stroke-width:60;stroke-linecap:round;stroke-linejoin:round;stroke-miterlimit:10;stroke-opacity:1;stroke-dasharray:none" /><path
       d="m 9500,73180 -1000,0 0,1000 1000,0 0,-1000 z"
       id="path596"
       style="fill:none;stroke:#840000;stroke-width:60;stroke-linecap:round;stroke-linejoin:round;stroke-miterlimit:10;stroke-opacity:1;stroke-dasharray:none" /><path
       d="m 9500,73680 1500,0"
       id="path598"
       style="fill:none;stroke:#840000;stroke-width:60;stroke-linecap:round;stroke-linejoin:round;stroke-miterlimit:10;stroke-opacity:1;stroke-dasharray:none" /><path
       d="m 10390,73800 -280,0"
       id="path602"
       style="fill:none;stroke:#840000;stroke-width:60;stroke-linecap:round;stroke-linejoin:round;stroke-miterlimit:10;stroke-opacity:1;stroke-dasharray:none" /><path
       d="m 10250,73800 0,500 -50,-70 -50,-50 -40,-20"
       id="path604"
       style="fill:none;stroke:#840000;stroke-width:60;stroke-linecap:round;stroke-linejoin:round;stroke-miterlimit:10;stroke-opacity:1;stroke-dasharray:none" /><path
       d="m 7880,73570 230,0"
       id="path608"
       style="fill:none;stroke:#008484;stroke-width:60;stroke-linecap:round;stroke-linejoin:round;stroke-miterlimit:10;stroke-opacity:1;stroke-dasharray:none" /><path
       d="m 7830,73420 160,500 170,-500"
       id="path610"
       style="fill:none;stroke:#008484;stroke-width:60;stroke-linecap:round;stroke-linejoin:round;stroke-miterlimit:10;stroke-opacity:1;stroke-dasharray:none" /><path
       d="m 9500,63630 -600,0 0,100 600,0 0,-100 z"
       id="path612"
       style="fill:none;stroke:#840000;stroke-width:60;stroke-linecap:round;stroke-linejoin:round;stroke-miterlimit:10;stroke-opacity:1;stroke-dasharray:none" /><path
       d="m 9500,63180 -1000,0 0,1000 1000,0 0,-1000 z"
       id="path614"
       style="fill:none;stroke:#840000;stroke-width:60;stroke-linecap:round;stroke-linejoin:round;stroke-miterlimit:10;stroke-opacity:1;stroke-dasharray:none" /><path
       d="m 9500,63680 1500,0"
       id="path616"
       style="fill:none;stroke:#840000;stroke-width:60;stroke-linecap:round;stroke-linejoin:round;stroke-miterlimit:10;stroke-opacity:1;stroke-dasharray:none" /><path
       d="m 10390,63800 -280,0"
       id="path620"
       style="fill:none;stroke:#840000;stroke-width:60;stroke-linecap:round;stroke-linejoin:round;stroke-miterlimit:10;stroke-opacity:1;stroke-dasharray:none" /><path
       d="m 10250,63800 0,500 -50,-70 -50,-50 -40,-20"
       id="path622"
       style="fill:none;stroke:#840000;stroke-width:60;stroke-linecap:round;stroke-linejoin:round;stroke-miterlimit:10;stroke-opacity:1;stroke-dasharray:none" /><path
       d="m 7870,63420 0,500"
       id="path626"
       style="fill:none;stroke:#008484;stroke-width:60;stroke-linecap:round;stroke-linejoin:round;stroke-miterlimit:10;stroke-opacity:1;stroke-dasharray:none" /><path
       d="m 8150,63420 -210,290"
       id="path628"
       style="fill:none;stroke:#008484;stroke-width:60;stroke-linecap:round;stroke-linejoin:round;stroke-miterlimit:10;stroke-opacity:1;stroke-dasharray:none" /><path
       d="m 8150,63920 -280,-280"
       id="path630"
       style="fill:none;stroke:#008484;stroke-width:60;stroke-linecap:round;stroke-linejoin:round;stroke-miterlimit:10;stroke-opacity:1;stroke-dasharray:none" /><path
       d="m 13300,73680 0,20 0,20 -10,10 0,20 -10,10 -10,20 -10,20 -10,10 -10,10 -10,10 -20,10 -10,10 -20,10 -10,10 -20,0 -20,10 -10,0 -20,0 -20,0 -20,0 -10,-10 -20,0 -10,-10 -20,-10 -20,-10 -10,-10 -10,-10 -10,-10 -10,-20 -10,-10 -10,-20 -10,-10 0,-20 -10,-20 0,-10 0,-20"
       id="path632"
       style="fill:none;stroke:#840000;stroke-width:60;stroke-linecap:round;stroke-linejoin:round;stroke-miterlimit:10;stroke-opacity:1;stroke-dasharray:none" /><path
       d="m 12900,73680 0,20 0,20 -10,10 0,20 -10,10 -10,20 -10,20 -10,10 -10,10 -10,10 -20,10 -10,10 -20,10 -10,10 -20,0 -20,10 -10,0 -20,0 -20,0 -20,0 -10,-10 -20,0 -10,-10 -20,-10 -20,-10 -10,-10 -10,-10 -10,-10 -10,-20 -10,-10 -10,-20 -10,-10 0,-20 -10,-20 0,-10 0,-20"
       id="path634"
       style="fill:none;stroke:#840000;stroke-width:60;stroke-linecap:round;stroke-linejoin:round;stroke-miterlimit:10;stroke-opacity:1;stroke-dasharray:none" /><path
       d="m 12500,73680 0,20 0,20 -10,10 0,20 -10,10 -10,20 -10,20 -10,10 -10,10 -10,10 -20,10 -10,10 -20,10 -10,10 -20,0 -20,10 -10,0 -20,0 -20,0 -20,0 -10,-10 -20,0 -10,-10 -20,-10 -20,-10 -10,-10 -10,-10 -10,-10 -10,-20 -10,-10 -10,-20 -10,-10 0,-20 -10,-20 0,-10 0,-20"
       id="path636"
       style="fill:none;stroke:#840000;stroke-width:60;stroke-linecap:round;stroke-linejoin:round;stroke-miterlimit:10;stroke-opacity:1;stroke-dasharray:none" /><path
       d="m 12100,73680 0,20 0,20 -10,10 0,20 -10,10 -10,20 -10,20 -10,10 -10,10 -10,10 -20,10 -10,10 -20,10 -10,10 -20,0 -20,10 -10,0 -20,0 -20,0 -20,0 -10,-10 -20,0 -10,-10 -20,-10 -20,-10 -10,-10 -10,-10 -10,-10 -10,-20 -10,-10 -10,-20 -10,-10 0,-20 -10,-20 0,-10 0,-20"
       id="path638"
       style="fill:none;stroke:#840000;stroke-width:60;stroke-linecap:round;stroke-linejoin:round;stroke-miterlimit:10;stroke-opacity:1;stroke-dasharray:none" /><path
       d="m 11700,73680 -200,0"
       id="path640"
       style="fill:none;stroke:#840000;stroke-width:60;stroke-linecap:round;stroke-linejoin:round;stroke-miterlimit:10;stroke-opacity:1;stroke-dasharray:none" /><path
       d="m 13300,73680 200,0"
       id="path642"
       style="fill:none;stroke:#840000;stroke-width:60;stroke-linecap:round;stroke-linejoin:round;stroke-miterlimit:10;stroke-opacity:1;stroke-dasharray:none" /><path
       d="m 12060,74420 -240,0 0,500"
       id="path646"
       style="fill:none;stroke:#008484;stroke-width:60;stroke-linecap:round;stroke-linejoin:round;stroke-miterlimit:10;stroke-opacity:1;stroke-dasharray:none" /><path
       d="m 12200,74450 40,-30 100,0 50,30 20,50 0,20 -20,50 -50,20 -70,0 -50,20 -20,50 0,30 20,40 50,30 70,0 50,-30"
       id="path648"
       style="fill:none;stroke:#008484;stroke-width:60;stroke-linecap:round;stroke-linejoin:round;stroke-miterlimit:10;stroke-opacity:1;stroke-dasharray:none" /><path
       d="m 13300,63680 0,20 0,20 -10,10 0,20 -10,10 -10,20 -10,20 -10,10 -10,10 -10,10 -20,10 -10,10 -20,10 -10,10 -20,0 -20,10 -10,0 -20,0 -20,0 -20,0 -10,-10 -20,0 -10,-10 -20,-10 -20,-10 -10,-10 -10,-10 -10,-10 -10,-20 -10,-10 -10,-20 -10,-10 0,-20 -10,-20 0,-10 0,-20"
       id="path650"
       style="fill:none;stroke:#840000;stroke-width:60;stroke-linecap:round;stroke-linejoin:round;stroke-miterlimit:10;stroke-opacity:1;stroke-dasharray:none" /><path
       d="m 12900,63680 0,20 0,20 -10,10 0,20 -10,10 -10,20 -10,20 -10,10 -10,10 -10,10 -20,10 -10,10 -20,10 -10,10 -20,0 -20,10 -10,0 -20,0 -20,0 -20,0 -10,-10 -20,0 -10,-10 -20,-10 -20,-10 -10,-10 -10,-10 -10,-10 -10,-20 -10,-10 -10,-20 -10,-10 0,-20 -10,-20 0,-10 0,-20"
       id="path652"
       style="fill:none;stroke:#840000;stroke-width:60;stroke-linecap:round;stroke-linejoin:round;stroke-miterlimit:10;stroke-opacity:1;stroke-dasharray:none" /><path
       d="m 12500,63680 0,20 0,20 -10,10 0,20 -10,10 -10,20 -10,20 -10,10 -10,10 -10,10 -20,10 -10,10 -20,10 -10,10 -20,0 -20,10 -10,0 -20,0 -20,0 -20,0 -10,-10 -20,0 -10,-10 -20,-10 -20,-10 -10,-10 -10,-10 -10,-10 -10,-20 -10,-10 -10,-20 -10,-10 0,-20 -10,-20 0,-10 0,-20"
       id="path654"
       style="fill:none;stroke:#840000;stroke-width:60;stroke-linecap:round;stroke-linejoin:round;stroke-miterlimit:10;stroke-opacity:1;stroke-dasharray:none" /><path
       d="m 12100,63680 0,20 0,20 -10,10 0,20 -10,10 -10,20 -10,20 -10,10 -10,10 -10,10 -20,10 -10,10 -20,10 -10,10 -20,0 -20,10 -10,0 -20,0 -20,0 -20,0 -10,-10 -20,0 -10,-10 -20,-10 -20,-10 -10,-10 -10,-10 -10,-10 -10,-20 -10,-10 -10,-20 -10,-10 0,-20 -10,-20 0,-10 0,-20"
       id="path656"
       style="fill:none;stroke:#840000;stroke-width:60;stroke-linecap:round;stroke-linejoin:round;stroke-miterlimit:10;stroke-opacity:1;stroke-dasharray:none" /><path
       d="m 11700,63680 -200,0"
       id="path658"
       style="fill:none;stroke:#840000;stroke-width:60;stroke-linecap:round;stroke-linejoin:round;stroke-miterlimit:10;stroke-opacity:1;stroke-dasharray:none" /><path
       d="m 13300,63680 200,0"
       id="path660"
       style="fill:none;stroke:#840000;stroke-width:60;stroke-linecap:round;stroke-linejoin:round;stroke-miterlimit:10;stroke-opacity:1;stroke-dasharray:none" /><path
       d="m 12060,64420 -240,0 0,500"
       id="path664"
       style="fill:none;stroke:#008484;stroke-width:60;stroke-linecap:round;stroke-linejoin:round;stroke-miterlimit:10;stroke-opacity:1;stroke-dasharray:none" /><path
       d="m 12200,64450 40,-30 100,0 50,30 20,50 0,20 -20,50 -50,20 -70,0 -50,20 -20,50 0,30 20,40 50,30 70,0 50,-30"
       id="path666"
       style="fill:none;stroke:#008484;stroke-width:60;stroke-linecap:round;stroke-linejoin:round;stroke-miterlimit:10;stroke-opacity:1;stroke-dasharray:none" /><path
       d="m 11000,73680 500,0"
       id="path668"
       style="fill:none;stroke:#008400;stroke-width:60;stroke-linecap:round;stroke-linejoin:round;stroke-miterlimit:10;stroke-opacity:1;stroke-dasharray:none" /><path
       d="m 11000,63680 500,0"
       id="path670"
       style="fill:none;stroke:#008400;stroke-width:60;stroke-linecap:round;stroke-linejoin:round;stroke-miterlimit:10;stroke-opacity:1;stroke-dasharray:none" /></g></svg>